HIERARCHY
ROOT Hips
{
	OFFSET 70.963699 534.312134 -188.735901
	CHANNELS 6 Xposition Yposition Zposition Zrotation Xrotation Yrotation
	JOINT Chest
	{
		OFFSET -2.419189 77.438416 -4.009186
		CHANNELS 6 Xposition Yposition Zposition Zrotation Xrotation Yrotation
		JOINT Chest2
		{
			OFFSET 0.000000 42.816010 0.000000
			CHANNELS 6 Xposition Yposition Zposition Zrotation Xrotation Yrotation
			JOINT Neck
			{
				OFFSET 0.000000 99.556824 0.000046
				CHANNELS 6 Xposition Yposition Zposition Zrotation Xrotation Yrotation
				JOINT Head
				{
					OFFSET 0.000000 26.086761 0.000000
					CHANNELS 6 Xposition Yposition Zposition Zrotation Xrotation Yrotation
					End Site
					{
						OFFSET 0.000000 94.703979 -0.000023
					}
				}
			}
			JOINT LeftCollar
			{
				OFFSET 23.131210 72.587997 -2.656769
				CHANNELS 6 Xposition Yposition Zposition Zrotation Xrotation Yrotation
				JOINT LeftShoulder
				{
					OFFSET 59.516396 0.000000 0.000000
					CHANNELS 6 Xposition Yposition Zposition Zrotation Xrotation Yrotation
					JOINT LeftElbow
					{
						OFFSET 0.000000 -103.850418 -0.000046
						CHANNELS 6 Xposition Yposition Zposition Zrotation Xrotation Yrotation
						JOINT LeftWrist
						{
							OFFSET 0.000000 -166.369217 0.000000
							CHANNELS 6 Xposition Yposition Zposition Zrotation Xrotation Yrotation
							End Site
							{
								OFFSET 0.000000 -26.086807 0.000000
							}
						}
					}
				}
			}
			JOINT RightCollar
			{
				OFFSET -37.868408 80.253616 9.180027
				CHANNELS 6 Xposition Yposition Zposition Zrotation Xrotation Yrotation
				JOINT RightShoulder
				{
					OFFSET -43.114792 0.000000 0.000000
					CHANNELS 6 Xposition Yposition Zposition Zrotation Xrotation Yrotation
					JOINT RightElbow
					{
						OFFSET 0.000000 -124.228775 -0.000034
						CHANNELS 6 Xposition Yposition Zposition Zrotation Xrotation Yrotation
						JOINT RightWrist
						{
							OFFSET 0.000000 -153.003616 0.000000
							CHANNELS 6 Xposition Yposition Zposition Zrotation Xrotation Yrotation
							End Site
							{
								OFFSET 0.000000 -26.086807 0.000000
							}
						}
					}
				}
			}
		}
	}
	JOINT LeftHip
	{
		OFFSET 29.527199 -32.826004 6.217209
		CHANNELS 6 Xposition Yposition Zposition Zrotation Xrotation Yrotation
		JOINT LeftKnee
		{
			OFFSET 0.000000 -204.070831 -0.000034
			CHANNELS 6 Xposition Yposition Zposition Zrotation Xrotation Yrotation
			JOINT LeftAnkle
			{
				OFFSET 0.000000 -230.332809 -0.000034
				CHANNELS 6 Xposition Yposition Zposition Zrotation Xrotation Yrotation
				End Site
				{
					OFFSET 0.000000 -0.000011 97.615196
				}
			}
		}
	}
	JOINT RightHip
	{
		OFFSET -37.385994 -27.843613 8.155197
		CHANNELS 6 Xposition Yposition Zposition Zrotation Xrotation Yrotation
		JOINT RightKnee
		{
			OFFSET 0.000000 -212.164856 -0.000034
			CHANNELS 6 Xposition Yposition Zposition Zrotation Xrotation Yrotation
			JOINT RightAnkle
			{
				OFFSET 0.000000 -203.925568 -0.000034
				CHANNELS 6 Xposition Yposition Zposition Zrotation Xrotation Yrotation
				End Site
				{
					OFFSET 0.000000 -0.000017 106.107628
				}
			}
		}
	}
}
MOTION
Frames: 10
Frame Time: 0.041667
203.202179 541.922363 77.957474 -0.763008 -0.789394 514.238932 -2.419195 77.438370 -4.009217 -4.791661 8.405454 -8.435290 0.000009 42.816029 0.000031 0.567077 -4.882992 1.728291 0.000030 99.556755 0.000049 -1.525059 -14.722626 32.135367 0.000006 26.086824 0.000011 -4.076720 -7.018679 21.328418 23.131268 72.587875 -2.656786 4.698380 4.733012 -20.533743 59.516430 0.000107 -0.000027 107.126825 37.761486 -6.487277 0.000004 -103.850433 -0.000049 0.544321 -4.232218 22.795399 0.000011 -166.369141 0.000000 18.176918 -19.134102 702.605495 -37.868382 80.253555 9.180033 -5.673997 0.654649 32.062704 -43.114738 0.000065 0.000014 -132.607604 9.405173 0.758726 -0.000008 -124.228760 -0.000051 102.216206 -103.834639 131.426650 -0.000029 -153.003601 0.000131 -0.961753 -22.392881 -22.370236 29.527157 -32.826080 6.217175 16.130795 -6.093945 -7.823877 -0.000020 -204.070908 -0.000017 -8.036663 25.608247 -24.398651 0.000043 -230.332794 0.000004 -28.713917 13.479733 46.766684 -37.386047 -27.843676 8.155175 -2.633218 -13.838183 -9.275347 -0.000007 -212.164795 0.000011 166.921477 139.873204 -111.867632 -0.000027 -203.925537 -0.000019 26.954203 -0.283637 -65.613133 
213.582092 539.944946 82.362122 -1.043861 -0.907027 529.002085 -2.419178 77.438438 -4.009170 -8.020387 7.900222 10.732529 -0.000011 42.816109 -0.000003 2.976618 -4.520384 -16.373563 0.000003 99.556839 0.000046 5.174555 -2.489771 49.745432 -0.000003 26.086733 0.000004 -8.901965 -4.218680 8.939489 23.131262 72.587860 -2.656795 4.089622 5.329200 -21.204949 59.516499 0.000103 -0.000041 109.108864 39.370853 -7.571147 -0.000014 -103.850403 -0.000072 -0.021837 -4.699584 16.183418 -0.000057 -166.369125 0.000011 17.470413 -21.740200 695.023166 -37.868404 80.253586 9.180044 -4.480487 2.513885 32.811296 -43.114761 -0.000030 0.000006 -131.186651 11.607254 1.206434 0.000002 -124.228714 -0.000070 120.572728 -108.962329 147.741418 -0.000039 -153.003662 -0.000165 -4.712948 -25.720083 36.129594 29.527176 -32.825954 6.217253 15.321873 -12.862324 7.234540 -0.000014 -204.070862 -0.000034 -4.226545 30.435777 -23.466399 0.000023 -230.332855 -0.000006 -24.836634 20.472843 37.581166 -37.385975 -27.843647 8.155240 -3.255323 -12.637108 -8.373456 -0.000030 -212.164856 -0.000010 161.014019 141.428137 -98.932326 -0.000035 -203.925568 -0.000020 32.774680 -12.400032 -61.602255 
223.833023 535.573059 84.914360 -0.900251 -0.993624 543.529788 -2.419215 77.438431 -4.009173 -4.203274 9.564444 -3.786387 0.000038 42.816078 0.000019 1.079900 -5.052785 -2.057416 -0.000011 99.556885 0.000029 6.953692 0.896768 51.417234 0.000003 26.086838 -0.000041 -9.327933 -4.086981 6.231216 23.131245 72.587952 -2.656786 3.874287 5.307442 -20.611435 59.516457 0.000043 0.000010 110.064810 39.624987 -7.201289 -0.000024 -103.850449 -0.000090 -0.858376 -4.646865 8.875449 0.000069 -166.369141 0.000006 15.637325 -23.714405 688.083803 -37.868416 80.253654 9.180017 -3.048914 3.946321 33.876717 -43.114788 0.000004 -0.000004 -128.355879 13.980742 0.026544 0.000001 -124.228615 -0.000049 127.744290 -113.352426 152.227827 0.000029 -153.003571 0.000057 20.724293 -41.231888 140.064285 29.527170 -32.825951 6.217223 15.214827 -19.404144 22.179940 -0.000009 -204.070801 -0.000017 1.585275 34.137975 -26.224054 -0.000026 -230.332825 0.000011 -13.333236 30.493765 25.851518 -37.385986 -27.843616 8.155209 -2.655357 -10.750949 -4.300259 -0.000008 -212.164825 0.000001 161.338221 139.905852 -98.403997 -0.000011 -203.925598 -0.000073 29.792124 -15.317618 -60.017275 
233.171768 529.200195 85.935242 -0.452894 -1.023504 556.912533 -2.419240 77.438469 -4.009153 -0.479494 10.623258 -17.309952 -0.000022 42.816025 0.000003 -0.449686 -5.948243 11.278927 -0.000031 99.556717 0.000064 7.820287 0.647383 48.109185 0.000007 26.086716 -0.000021 -8.554955 -4.753454 5.948305 23.131227 72.587830 -2.656743 4.251305 4.274285 -19.407644 59.516464 0.000080 0.000001 108.987710 39.855127 -3.789725 -0.000009 -103.850464 -0.000038 -1.938811 -4.270677 1.834877 -0.000057 -166.369202 0.000006 11.750720 -24.861853 679.957025 -37.868446 80.253525 9.180053 -2.727809 2.939425 32.200377 -43.114845 -0.000035 0.000014 -121.293190 13.258727 -2.375986 -0.000054 -124.228775 -0.000060 126.551999 -117.770042 148.024283 -0.000005 -153.003555 0.000086 14.153049 -40.471319 129.876716 29.527182 -32.825932 6.217283 15.553659 -24.862481 33.591741 0.000009 -204.070892 -0.000014 7.014321 36.189891 -34.542647 0.000023 -230.332855 0.000011 -10.129422 31.577915 22.333837 -37.386017 -27.843636 8.155241 -1.411303 -10.154588 -5.635347 -0.000017 -212.164856 0.000009 161.179460 137.820814 -98.571842 -0.000029 -203.925598 -0.000023 26.963350 -17.993263 -60.841686 
240.965698 521.709045 86.260872 -0.038538 -1.174930 568.466591 -2.419207 77.438576 -4.009200 2.851704 11.112478 -29.077048 -0.000009 42.816040 -0.000023 -1.586474 -7.054917 23.481314 -0.000034 99.556793 0.000018 8.169102 -0.044767 43.557216 0.000023 26.086721 0.000011 -7.297810 -5.509949 5.517052 23.131250 72.587921 -2.656792 4.351815 3.462216 -18.117251 59.516396 0.000046 -0.000026 105.749251 40.349097 -5.243573 0.000069 -103.850372 -0.000033 -2.240714 -3.439761 -8.307224 0.000000 -166.369202 -0.000006 13.938609 -23.329723 684.346870 -37.868408 80.253586 9.180013 -2.629971 2.486499 31.565159 -43.114815 0.000029 0.000021 -113.148518 12.533686 -5.040946 0.000010 -124.228714 -0.000054 121.555538 -122.075028 141.371870 0.000007 -153.003632 0.000111 7.539453 -40.236849 117.387333 29.527187 -32.825912 6.217249 15.803582 -29.171622 41.321155 0.000011 -204.070862 -0.000011 12.182913 37.163527 -45.518355 0.000003 -230.332809 0.000006 -21.947162 21.380017 28.453330 -37.386017 -27.843624 8.155235 -0.609087 -10.862012 -6.025698 0.000021 -212.164825 -0.000006 164.711405 134.597675 -102.181215 0.000004 -203.925568 -0.000086 25.627064 -23.222015 -64.892541 
247.288757 513.434082 86.254829 0.608357 -1.178144 578.307636 -2.419202 77.438438 -4.009220 -1.483874 12.357920 -3.774072 -0.000041 42.815994 -0.000020 0.728516 -5.933744 1.163339 -0.000011 99.556885 0.000004 7.814249 -1.016131 37.393971 -0.000011 26.086739 -0.000004 -6.045840 -6.012124 5.124139 23.131233 72.587921 -2.656795 3.606213 3.083367 -17.016445 59.516418 0.000074 -0.000077 101.254986 40.611342 -6.997798 0.000066 -103.850441 -0.000057 -2.359638 -2.445845 -14.140104 0.000011 -166.369141 -0.000029 14.867341 -21.528085 686.843604 -37.868401 80.253624 9.180000 -1.413123 3.804097 32.542337 -43.114742 -0.000085 -0.000029 -106.763793 12.832787 -7.892860 -0.000014 -124.228821 -0.000043 115.386047 -125.988604 134.419339 -0.000071 -153.003510 0.000087 -1.143107 -38.926460 101.856323 29.527193 -32.825912 6.217197 15.750959 -32.478465 45.796248 0.000000 -204.070862 -0.000029 19.358214 35.939827 -63.524810 0.000063 -230.332809 -0.000032 -50.857401 -10.075617 29.307826 -37.386024 -27.843624 8.155168 -0.237141 -12.392422 -6.810748 0.000014 -212.164810 0.000013 169.028208 131.473615 -104.962789 -0.000015 -203.925537 -0.000031 24.030083 -29.389293 -70.603911 
252.415787 504.716309 85.598923 1.766772 -1.137278 587.197374 -2.419202 77.438354 -4.009211 -0.502177 13.021316 -1.422392 -0.000004 42.816067 -0.000003 0.768294 -6.166028 0.793215 -0.000011 99.556870 0.000026 6.686614 -2.097550 30.904864 -0.000010 26.086710 -0.000021 -4.472552 -5.925960 4.754141 23.131218 72.587921 -2.656783 2.604314 2.926917 -16.076930 59.516373 -0.000017 -0.000006 95.702965 41.165612 -7.700107 0.000037 -103.850388 -0.000050 -2.647710 -1.770559 -21.640915 0.000034 -166.369125 0.000029 15.661796 -18.617764 691.183288 -37.868423 80.253693 9.180041 -0.522120 4.816729 32.876733 -43.114777 0.000011 -0.000039 -100.165872 10.857042 -11.015399 0.000085 -124.228775 -0.000105 108.807010 -129.082584 126.228603 -0.000055 -153.003601 0.000035 -13.096233 -38.619560 91.939141 29.527153 -32.826057 6.217186 15.468756 -35.727524 48.450295 0.000000 -204.070831 -0.000014 28.238526 30.443721 -95.819378 0.000044 -230.332809 -0.000092 -75.637870 -48.137452 18.180154 -37.386009 -27.843685 8.155207 -0.179798 -14.472513 -7.345636 -0.000019 -212.164825 -0.000021 174.787683 128.440464 -109.433264 -0.000028 -203.925598 -0.000086 21.692435 -33.971991 -75.872371 
256.351929 496.191162 84.036186 3.750336 -1.190732 595.221698 -2.419184 77.438362 -4.009186 0.591935 12.760318 0.959646 -0.000010 42.815964 -0.000039 0.784617 -6.276134 0.668938 -0.000023 99.556847 0.000066 5.560441 -2.923439 24.762754 0.000006 26.086716 0.000029 -3.364246 -5.551452 3.936723 23.131191 72.587914 -2.656777 2.048806 3.014160 -16.043971 59.516479 0.000064 -0.000018 89.347754 42.233734 -5.298224 -0.000009 -103.850487 -0.000057 -3.338609 -1.603021 -28.870626 -0.000011 -166.369141 0.000046 14.237443 -16.187668 694.143164 -37.868446 80.253685 9.180058 -0.398546 5.084952 33.112105 -43.114750 0.000034 -0.000018 -92.889637 8.279876 -13.468088 -0.000061 -124.228806 -0.000087 100.754197 -131.506659 116.442759 -0.000055 -153.003662 0.000040 -12.485115 -36.416359 90.974595 29.527176 -32.826015 6.217220 15.371237 -39.449899 50.620021 0.000000 -204.070892 -0.000051 32.837688 18.438869 -147.341305 0.000070 -230.332855 -0.000100 -9.453510 -103.894936 88.952682 -37.385994 -27.843689 8.155192 -0.459681 -17.761641 -8.807223 0.000030 -212.164795 -0.000024 180.000756 125.099573 -113.140765 -0.000003 -203.925598 -0.000057 19.491731 -37.131295 -80.042775 
259.205994 488.101379 81.626198 6.052253 -1.331644 602.296791 -2.419202 77.438408 -4.009182 1.021927 12.252132 3.682798 0.000014 42.816021 -0.000051 0.807534 -6.407557 0.503387 -0.000011 99.556854 0.000079 4.553336 -4.034658 18.477549 0.000001 26.086800 0.000036 -2.145213 -5.330152 3.303155 23.131214 72.587830 -2.656734 1.679491 3.195380 -15.982871 59.516418 -0.000074 -0.000084 82.791878 42.462839 -2.014182 0.000023 -103.850388 -0.000037 -3.993162 -1.169255 -34.154340 0.000000 -166.369171 -0.000029 11.880764 -14.617710 695.181298 -37.868401 80.253593 9.180070 0.043219 5.887510 33.773796 -43.114719 -0.000021 0.000004 -86.832482 5.696872 -15.830089 -0.000011 -124.228806 -0.000038 92.737392 -133.572723 109.264975 -0.000109 -153.003632 0.000065 -11.444057 -29.067994 87.642071 29.527153 -32.826012 6.217215 15.467074 -43.250339 53.301980 0.000000 -204.070816 -0.000033 29.470675 8.772617 -192.481288 -0.000043 -230.332886 -0.000063 -66.928703 -140.732346 34.281208 -37.386009 -27.843601 8.155216 -0.685545 -21.903414 -11.021650 0.000013 -212.164856 -0.000043 181.884454 121.483807 -112.906988 -0.000013 -203.925598 -0.000003 18.022902 -39.740622 -82.661046 
260.911316 480.131744 78.279167 8.517196 -1.222063 608.830003 -2.419180 77.438354 -4.009209 1.068044 12.050163 6.011115 -0.000004 42.816029 -0.000030 0.832075 -6.585557 0.344159 -0.000009 99.556839 0.000087 3.756173 -5.588776 12.437447 -0.000011 26.086721 0.000012 -0.815213 -5.292764 2.576889 23.131207 72.587891 -2.656703 1.157860 3.115548 -15.408475 59.516453 0.000029 -0.000093 76.339460 41.930542 -1.230551 -0.000037 -103.850433 -0.000064 -4.136835 -0.714025 -37.216687 0.000011 -166.369232 -0.000074 9.493906 -12.934710 696.905402 -37.868427 80.253647 9.180096 1.170855 7.087319 34.089730 -43.114777 0.000061 -0.000005 -82.974224 1.690062 -17.527194 -0.000031 -124.228844 -0.000057 87.486384 -135.748207 104.426646 -0.000081 -153.003601 0.000014 -13.557465 -24.793413 84.634472 29.527205 -32.826000 6.217249 15.820475 -46.905170 56.313865 0.000023 -204.070862 0.000009 24.291803 4.704678 -220.053040 -0.000053 -230.332886 -0.000056 -73.143437 -166.979383 33.211494 -37.385986 -27.843550 8.155179 -0.563636 -26.260974 -13.149856 0.000003 -212.164856 -0.000014 181.244274 118.176753 -110.841635 -0.000019 -203.925568 -0.000051 17.313855 -41.651351 -84.117953 
